FILE "mixed.bin" BINARY
  TRACK 01 MODE1/2048
    INDEX 01 00:00:00
  TRACK 02 AUDIO
    INDEX 01 00:01:25
  TRACK 03 AUDIO
    INDEX 01 00:02:30
